#N canvas 0.0 0.0 1600.0 900.0 12;
#X text 30 30 Pd → Python;
#X text 30 43.5 ===========;
#X obj 30 84.0 loadbang;
#X msg 30 111.0 connect 192.168.0.100 5001;
#X msg 40 138.0 disconnect;
#X obj 130 138.0 metro 100;
#X obj 130 165.0 s rate;
#X obj 40 192.0 r send.to.iipyper;
#X obj 40 219.0 packOSC;
#X obj 30 246.0 udpsend;
#X floatatom 30 273.0 5 0 0 0 - - - 0;
#X obj 70 273.0 print reply.from.netreceive;
#X text 30 530 Python → Pd;
#X text 30 543.5 ===========;
#X obj 30 584.0 udpreceive 5000;
#X obj 30 611.0 unpackOSC;
#X obj 50 638.0 print receive.from.iipyper;
#X obj 30 665.0 s receive.from.iipyper;
#X text 330 30 /attractor/pos;
#X text 330 45 x;
#X text 330 60 f 0 1920;
#X text 400 45 y;
#X text 400 60 f 0 1080;
#X obj 330 80 r attractor_pos_x;
#X obj 400 105 r attractor_pos_y;
#X obj 280 265 r rate;
#X obj 330 137.0 vsl 20 120 0 1920 0 0 empty empty empty 0 -9 0 12 #fcfcfc #000000 #000000 0 1;
#X floatatom 330 265.0 5 0 0 0 - - - 0;
#X obj 330 292.0 zl reg;
#X obj 330 319.0 change;
#X obj 400 137.0 vsl 20 120 0 1080 0 0 empty empty empty 0 -9 0 12 #fcfcfc #000000 #000000 0 1;
#X floatatom 400 265.0 5 0 0 0 - - - 0;
#X obj 400 292.0 zl reg;
#X obj 400 319.0 change;
#X obj 400 346.0 t b f;
#X obj 330 387.0 pack f f;
#X msg 330 412.0 /attractor/pos \$1 \$2;
#X obj 330 437.0 s send.to.iipyper;
#X text 570.0 30 /attractor/dist;
#X text 570.0 45 distance;
#X text 570.0 60 f 0 1080;
#X text 640.0 45 weight;
#X text 640.0 60 f 0 10;
#X obj 570.0 80 r attractor_dist_dis;
#X obj 640.0 105 r attractor_dist_wei;
#X obj 520.0 265 r rate;
#X obj 570.0 137.0 vsl 20 120 0 1080 0 0 empty empty empty 0 -9 0 12 #fcfcfc #000000 #000000 0 1;
#X floatatom 570.0 265.0 5 0 0 0 - - - 0;
#X obj 570.0 292.0 zl reg;
#X obj 570.0 319.0 change;
#X obj 640.0 137.0 vsl 20 120 0 10 0 0 empty empty empty 0 -9 0 12 #fcfcfc #000000 #000000 0 1;
#X floatatom 640.0 265.0 5 0 0 0 - - - 0;
#X obj 640.0 292.0 zl reg;
#X obj 640.0 319.0 change;
#X obj 640.0 346.0 t b f;
#X obj 570.0 387.0 pack f f;
#X msg 570.0 412.0 /attractor/dist \$1 \$2;
#X obj 570.0 437.0 s send.to.iipyper;
#X text 330 530 /attractors/nearby;
#X obj 330 557.0 r receive.from.iipyper;
#X obj 330 584.0 routeOSC /attractors/nearby;
#X obj 330 611.0 unpack f f;
#X obj 414 611.0 print /attractors/nearby;
#X obj 280 776.0 r rate;
#X obj 330 648.0 vsl 20 120 0 64 0 0 empty empty empty 0 -9 0 12 #fcfcfc #000000 #000000 0 1;
#X obj 330 776.0 int;
#X floatatom 330 803.0 5 0 0 0 - - - 0;
#X obj 330 830.0 zl reg;
#X obj 330 857.0 change;
#X obj 400 648.0 vsl 20 120 0 64 0 0 empty empty empty 0 -9 0 12 #fcfcfc #000000 #000000 0 1;
#X obj 400 776.0 int;
#X floatatom 400 803.0 5 0 0 0 - - - 0;
#X obj 400 830.0 zl reg;
#X obj 400 857.0 change;
#X obj 330 833.0 s attractors_nearby_a1;
#X obj 400 858.0 s attractors_nearby_a2;
#X text 330 883.0 a1;
#X text 330 898.0 i 0 63;
#X text 400 883.0 a2;
#X text 400 898.0 i 0 63;
#X connect 2 0 3 0;
#X connect 3 0 9 0;
#X connect 9 0 10 0;
#X connect 9 1 11 0;
#X connect 2 0 5 0;
#X connect 5 0 6 0;
#X connect 4 0 9 0;
#X connect 7 0 8 0;
#X connect 8 0 9 0;
#X connect 14 0 15 0;
#X connect 15 0 17 0;
#X connect 15 0 16 0;
#X connect 26 0 27 0;
#X connect 27 0 28 1;
#X connect 25 0 28 0;
#X connect 28 0 29 0;
#X connect 30 0 31 0;
#X connect 31 0 32 1;
#X connect 25 0 32 0;
#X connect 32 0 33 0;
#X connect 33 0 34 0;
#X connect 23 0 26 0;
#X connect 29 0 35 0;
#X connect 24 0 30 0;
#X connect 34 0 35 0;
#X connect 34 1 35 1;
#X connect 35 0 36 0;
#X connect 36 0 37 0;
#X connect 46 0 47 0;
#X connect 47 0 48 1;
#X connect 45 0 48 0;
#X connect 48 0 49 0;
#X connect 50 0 51 0;
#X connect 51 0 52 1;
#X connect 45 0 52 0;
#X connect 52 0 53 0;
#X connect 53 0 54 0;
#X connect 43 0 46 0;
#X connect 49 0 55 0;
#X connect 44 0 50 0;
#X connect 54 0 55 0;
#X connect 54 1 55 1;
#X connect 55 0 56 0;
#X connect 56 0 57 0;
#X connect 64 0 65 0;
#X connect 65 0 66 0;
#X connect 66 0 67 1;
#X connect 63 0 67 0;
#X connect 67 0 68 0;
#X connect 69 0 70 0;
#X connect 70 0 71 0;
#X connect 71 0 72 1;
#X connect 63 0 72 0;
#X connect 72 0 73 0;
#X connect 59 0 60 0;
#X connect 60 0 61 0;
#X connect 60 0 62 0;
#X connect 61 0 64 0;
#X connect 61 1 69 0;
#X connect 68 0 74 0;
#X connect 73 0 75 0;
