#N canvas 0.0 0.0 1600.0 900.0 12;
#X text 30 30 Pd → Python;
#X text 30 43.5 ===========;
#X obj 30 84.0 loadbang;
#X msg 30 111.0 connect 192.168.7.1 7561;
#X msg 40 138.0 disconnect;
#X obj 130 138.0 metro 100;
#X obj 130 165.0 s rate;
#X obj 40 192.0 r send.to.iipyper;
#X obj 40 219.0 packOSC;
#X obj 30 246.0 udpsend;
#X floatatom 30 273.0 5 0 0 0 - - - 0;
#X obj 70 273.0 print reply.from.netreceive;
#X text 30 530 Python → Pd;
#X text 30 543.5 ===========;
#X obj 30 584.0 udpreceive 7562;
#X obj 30 611.0 unpackOSC;
#X obj 50 638.0 print receive.from.iipyper;
#X obj 30 665.0 s receive.from.iipyper;
#X text 330 30 /fluid/spectralshape;
#X text 330 45 centroid;
#X text 330 60 f 20 20000.0;
#X text 400 45 spread;
#X text 400 60 f 20 20000.0;
#X text 470 45 skewness;
#X text 470 60 f 0 8;
#X text 540 45 kurtosis;
#X text 540 60 f 0 128;
#X text 610 45 rolloff;
#X text 610 60 f 20 20000.0;
#X text 680 45 flatness;
#X text 680 60 f -120 0;
#X text 750 45 crest;
#X text 750 60 f 0 60;
#X obj 330 80 r fluid_spectralshape_cen;
#X obj 400 105 r fluid_spectralshape_spr;
#X obj 470 80 r fluid_spectralshape_ske;
#X obj 540 105 r fluid_spectralshape_kur;
#X obj 610 80 r fluid_spectralshape_rol;
#X obj 680 105 r fluid_spectralshape_fla;
#X obj 750 80 r fluid_spectralshape_cre;
#X obj 280 265 r rate;
#X obj 330 137.0 vsl 20 120 20 20000.0 0 0 empty empty empty 0 -9 0 12 #fcfcfc #000000 #000000 0 1;
#X floatatom 330 265.0 5 0 0 0 - - - 0;
#X obj 330 292.0 zl reg;
#X obj 330 319.0 change;
#X obj 400 137.0 vsl 20 120 20 20000.0 0 0 empty empty empty 0 -9 0 12 #fcfcfc #000000 #000000 0 1;
#X floatatom 400 265.0 5 0 0 0 - - - 0;
#X obj 400 292.0 zl reg;
#X obj 400 319.0 change;
#X obj 400 346.0 t b f;
#X obj 470 137.0 vsl 20 120 0 8 0 0 empty empty empty 0 -9 0 12 #fcfcfc #000000 #000000 0 1;
#X floatatom 470 265.0 5 0 0 0 - - - 0;
#X obj 470 292.0 zl reg;
#X obj 470 319.0 change;
#X obj 470 346.0 t b f;
#X obj 540 137.0 vsl 20 120 0 128 0 0 empty empty empty 0 -9 0 12 #fcfcfc #000000 #000000 0 1;
#X floatatom 540 265.0 5 0 0 0 - - - 0;
#X obj 540 292.0 zl reg;
#X obj 540 319.0 change;
#X obj 540 346.0 t b f;
#X obj 610 137.0 vsl 20 120 20 20000.0 0 0 empty empty empty 0 -9 0 12 #fcfcfc #000000 #000000 0 1;
#X floatatom 610 265.0 5 0 0 0 - - - 0;
#X obj 610 292.0 zl reg;
#X obj 610 319.0 change;
#X obj 610 346.0 t b f;
#X obj 680 137.0 vsl 20 120 -120 0 0 0 empty empty empty 0 -9 0 12 #fcfcfc #000000 #000000 0 1;
#X floatatom 680 265.0 5 0 0 0 - - - 0;
#X obj 680 292.0 zl reg;
#X obj 680 319.0 change;
#X obj 680 346.0 t b f;
#X obj 750 137.0 vsl 20 120 0 60 0 0 empty empty empty 0 -9 0 12 #fcfcfc #000000 #000000 0 1;
#X floatatom 750 265.0 5 0 0 0 - - - 0;
#X obj 750 292.0 zl reg;
#X obj 750 319.0 change;
#X obj 750 346.0 t b f;
#X obj 330 387.0 pack f f f f f f f;
#X msg 330 412.0 /fluid/spectralshape \$1 \$2 \$3 \$4 \$5 \$6 \$7;
#X obj 330 437.0 s send.to.iipyper;
#X text 920.0 30 /fluid/noveltyfeature;
#X text 920.0 45 novelty;
#X text 920.0 60 f 0 1;
#X obj 920.0 80 r fluid_noveltyfeature_nov;
#X obj 870.0 265 r rate;
#X obj 920.0 137.0 vsl 20 120 0 1 0 0 empty empty empty 0 -9 0 12 #fcfcfc #000000 #000000 0 1;
#X floatatom 920.0 265.0 5 0 0 0 - - - 0;
#X obj 920.0 292.0 zl reg;
#X obj 920.0 319.0 change;
#X msg 920.0 412.0 /fluid/noveltyfeature \$1;
#X obj 920.0 437.0 s send.to.iipyper;
#X text 1260.0 30 /fluid/ampfeature;
#X text 1260.0 45 amp;
#X text 1260.0 60 f 0 1;
#X obj 1260.0 80 r fluid_ampfeature_amp;
#X obj 1210.0 265 r rate;
#X obj 1260.0 137.0 vsl 20 120 0 1 0 0 empty empty empty 0 -9 0 12 #fcfcfc #000000 #000000 0 1;
#X floatatom 1260.0 265.0 5 0 0 0 - - - 0;
#X obj 1260.0 292.0 zl reg;
#X obj 1260.0 319.0 change;
#X msg 1260.0 412.0 /fluid/ampfeature \$1;
#X obj 1260.0 437.0 s send.to.iipyper;
#X text 1540.0 30 /fluid/sinefeature/freqs;
#X text 1540.0 45 vector;
#X text 1540.0 60 l 20 20000.0;
#X obj 1540.0 87.0 r fluid_sinefeature_freqs;
#X obj 1540.0 114.0 list prepend /fluid/sinefeature/freqs;
#X obj 1540.0 141.0 list trim;
#X obj 1540.0 168.0 s send.to.iipyper;
#X text 1925.0 30 /fluid/sinefeature/mags;
#X text 1925.0 45 vector;
#X text 1925.0 60 l 0 1;
#X obj 1925.0 87.0 r fluid_sinefeature_mags;
#X obj 1925.0 114.0 list prepend /fluid/sinefeature/mags;
#X obj 1925.0 141.0 list trim;
#X obj 1925.0 168.0 s send.to.iipyper;
#X connect 2 0 3 0;
#X connect 3 0 9 0;
#X connect 9 0 10 0;
#X connect 9 1 11 0;
#X connect 2 0 5 0;
#X connect 5 0 6 0;
#X connect 4 0 9 0;
#X connect 7 0 8 0;
#X connect 8 0 9 0;
#X connect 14 0 15 0;
#X connect 15 0 17 0;
#X connect 15 0 16 0;
#X connect 41 0 42 0;
#X connect 42 0 43 1;
#X connect 40 0 43 0;
#X connect 43 0 44 0;
#X connect 45 0 46 0;
#X connect 46 0 47 1;
#X connect 40 0 47 0;
#X connect 47 0 48 0;
#X connect 48 0 49 0;
#X connect 50 0 51 0;
#X connect 51 0 52 1;
#X connect 40 0 52 0;
#X connect 52 0 53 0;
#X connect 53 0 54 0;
#X connect 55 0 56 0;
#X connect 56 0 57 1;
#X connect 40 0 57 0;
#X connect 57 0 58 0;
#X connect 58 0 59 0;
#X connect 60 0 61 0;
#X connect 61 0 62 1;
#X connect 40 0 62 0;
#X connect 62 0 63 0;
#X connect 63 0 64 0;
#X connect 65 0 66 0;
#X connect 66 0 67 1;
#X connect 40 0 67 0;
#X connect 67 0 68 0;
#X connect 68 0 69 0;
#X connect 70 0 71 0;
#X connect 71 0 72 1;
#X connect 40 0 72 0;
#X connect 72 0 73 0;
#X connect 73 0 74 0;
#X connect 33 0 41 0;
#X connect 44 0 75 0;
#X connect 34 0 45 0;
#X connect 49 0 75 0;
#X connect 49 1 75 1;
#X connect 35 0 50 0;
#X connect 54 0 75 0;
#X connect 54 1 75 2;
#X connect 36 0 55 0;
#X connect 59 0 75 0;
#X connect 59 1 75 3;
#X connect 37 0 60 0;
#X connect 64 0 75 0;
#X connect 64 1 75 4;
#X connect 38 0 65 0;
#X connect 69 0 75 0;
#X connect 69 1 75 5;
#X connect 39 0 70 0;
#X connect 74 0 75 0;
#X connect 74 1 75 6;
#X connect 75 0 76 0;
#X connect 76 0 77 0;
#X connect 83 0 84 0;
#X connect 84 0 85 1;
#X connect 82 0 85 0;
#X connect 85 0 86 0;
#X connect 81 0 83 0;
#X connect 86 0 87 0;
#X connect 87 0 88 0;
#X connect 94 0 95 0;
#X connect 95 0 96 1;
#X connect 93 0 96 0;
#X connect 96 0 97 0;
#X connect 92 0 94 0;
#X connect 97 0 98 0;
#X connect 98 0 99 0;
#X connect 103 0 104 0;
#X connect 104 0 105 0;
#X connect 105 0 106 0;
#X connect 110 0 111 0;
#X connect 111 0 112 0;
#X connect 112 0 113 0;
