#N canvas 0.0 0.0 1600.0 900.0 12;
#X text 30 30 Pd → Python;
#X text 30 43.5 ===========;
#X obj 30 84.0 loadbang;
#X msg 30 111.0 connect 127.0.0.1 7561;
#X msg 40 138.0 disconnect;
#X obj 130 138.0 metro 100;
#X obj 130 165.0 s rate;
#X obj 40 192.0 r send.to.iipyper;
#X obj 40 219.0 packOSC;
#X obj 30 246.0 udpsend;
#X floatatom 30 273.0 5 0 0 0 - - - 0;
#X obj 70 273.0 print reply.from.netreceive;
#X text 30 530 Python → Pd;
#X text 30 543.5 ===========;
#X obj 30 584.0 udpreceive 7562;
#X obj 30 611.0 unpackOSC;
#X obj 50 638.0 print receive.from.iipyper;
#X obj 30 665.0 s receive.from.iipyper;
#X connect 2 0 3 0;
#X connect 3 0 9 0;
#X connect 9 0 10 0;
#X connect 9 1 11 0;
#X connect 2 0 5 0;
#X connect 5 0 6 0;
#X connect 4 0 9 0;
#X connect 7 0 8 0;
#X connect 8 0 9 0;
#X connect 14 0 15 0;
#X connect 15 0 17 0;
#X connect 15 0 16 0;
