#N canvas 0.0 0.0 1600.0 900.0 12;
#X text 30 30 Pd → Python;
#X text 30 43.5 ===========;
#X obj 30 84.0 loadbang;
#X msg 30 111.0 connect 192.168.7.1 7561;
#X msg 40 138.0 disconnect;
#X obj 130 138.0 metro 100;
#X obj 130 165.0 s rate;
#X obj 40 192.0 r send.to.iipyper;
#X obj 40 219.0 packOSC;
#X obj 30 246.0 udpsend;
#X floatatom 30 273.0 5 0 0 0 - - - 0;
#X obj 70 273.0 print reply.from.netreceive;
#X text 30 530 Python → Pd;
#X text 30 543.5 ===========;
#X obj 30 584.0 udpreceive 7562;
#X obj 30 611.0 unpackOSC;
#X obj 50 638.0 print receive.from.iipyper;
#X obj 30 665.0 s receive.from.iipyper;
#X text 330 30 /attractor/pos;
#X text 330 45 x;
#X text 330 60 f 0 1920;
#X text 400 45 y;
#X text 400 60 f 0 1080;
#X obj 330 80 r attractor_pos_x;
#X obj 400 105 r attractor_pos_y;
#X obj 280 265 r rate;
#X obj 330 137.0 vsl 20 120 0 1920 0 0 empty empty empty 0 -9 0 12 #fcfcfc #000000 #000000 0 1;
#X floatatom 330 265.0 5 0 0 0 - - - 0;
#X obj 330 292.0 zl reg;
#X obj 330 319.0 change;
#X obj 400 137.0 vsl 20 120 0 1080 0 0 empty empty empty 0 -9 0 12 #fcfcfc #000000 #000000 0 1;
#X floatatom 400 265.0 5 0 0 0 - - - 0;
#X obj 400 292.0 zl reg;
#X obj 400 319.0 change;
#X obj 400 346.0 t b f;
#X obj 330 387.0 pack f f;
#X msg 330 412.0 /attractor/pos \$1 \$2;
#X obj 330 437.0 s send.to.iipyper;
#X text 570.0 30 /attractor/dist;
#X text 570.0 45 distance;
#X text 570.0 60 f 0 1080;
#X text 640.0 45 weight;
#X text 640.0 60 f 0 10;
#X obj 570.0 80 r attractor_dist_dis;
#X obj 640.0 105 r attractor_dist_wei;
#X obj 520.0 265 r rate;
#X obj 570.0 137.0 vsl 20 120 0 1080 0 0 empty empty empty 0 -9 0 12 #fcfcfc #000000 #000000 0 1;
#X floatatom 570.0 265.0 5 0 0 0 - - - 0;
#X obj 570.0 292.0 zl reg;
#X obj 570.0 319.0 change;
#X obj 640.0 137.0 vsl 20 120 0 10 0 0 empty empty empty 0 -9 0 12 #fcfcfc #000000 #000000 0 1;
#X floatatom 640.0 265.0 5 0 0 0 - - - 0;
#X obj 640.0 292.0 zl reg;
#X obj 640.0 319.0 change;
#X obj 640.0 346.0 t b f;
#X obj 570.0 387.0 pack f f;
#X msg 570.0 412.0 /attractor/dist \$1 \$2;
#X obj 570.0 437.0 s send.to.iipyper;
#X text 820.0 30 /fluid/spectralshape;
#X text 820.0 45 centroid;
#X text 820.0 60 f 20 20000.0;
#X text 890.0 45 spread;
#X text 890.0 60 f 20 20000.0;
#X text 960.0 45 skewness;
#X text 960.0 60 f 0 8;
#X text 1030.0 45 kurtosis;
#X text 1030.0 60 f 0 128;
#X text 1100.0 45 rolloff;
#X text 1100.0 60 f 20 20000.0;
#X text 1170.0 45 flatness;
#X text 1170.0 60 f -120 0;
#X text 1240.0 45 crest;
#X text 1240.0 60 f 0 60;
#X obj 820.0 80 r fluid_spectralshape_cen;
#X obj 890.0 105 r fluid_spectralshape_spr;
#X obj 960.0 80 r fluid_spectralshape_ske;
#X obj 1030.0 105 r fluid_spectralshape_kur;
#X obj 1100.0 80 r fluid_spectralshape_rol;
#X obj 1170.0 105 r fluid_spectralshape_fla;
#X obj 1240.0 80 r fluid_spectralshape_cre;
#X obj 770.0 265 r rate;
#X obj 820.0 137.0 vsl 20 120 20 20000.0 0 0 empty empty empty 0 -9 0 12 #fcfcfc #000000 #000000 0 1;
#X floatatom 820.0 265.0 5 0 0 0 - - - 0;
#X obj 820.0 292.0 zl reg;
#X obj 820.0 319.0 change;
#X obj 890.0 137.0 vsl 20 120 20 20000.0 0 0 empty empty empty 0 -9 0 12 #fcfcfc #000000 #000000 0 1;
#X floatatom 890.0 265.0 5 0 0 0 - - - 0;
#X obj 890.0 292.0 zl reg;
#X obj 890.0 319.0 change;
#X obj 890.0 346.0 t b f;
#X obj 960.0 137.0 vsl 20 120 0 8 0 0 empty empty empty 0 -9 0 12 #fcfcfc #000000 #000000 0 1;
#X floatatom 960.0 265.0 5 0 0 0 - - - 0;
#X obj 960.0 292.0 zl reg;
#X obj 960.0 319.0 change;
#X obj 960.0 346.0 t b f;
#X obj 1030.0 137.0 vsl 20 120 0 128 0 0 empty empty empty 0 -9 0 12 #fcfcfc #000000 #000000 0 1;
#X floatatom 1030.0 265.0 5 0 0 0 - - - 0;
#X obj 1030.0 292.0 zl reg;
#X obj 1030.0 319.0 change;
#X obj 1030.0 346.0 t b f;
#X obj 1100.0 137.0 vsl 20 120 20 20000.0 0 0 empty empty empty 0 -9 0 12 #fcfcfc #000000 #000000 0 1;
#X floatatom 1100.0 265.0 5 0 0 0 - - - 0;
#X obj 1100.0 292.0 zl reg;
#X obj 1100.0 319.0 change;
#X obj 1100.0 346.0 t b f;
#X obj 1170.0 137.0 vsl 20 120 -120 0 0 0 empty empty empty 0 -9 0 12 #fcfcfc #000000 #000000 0 1;
#X floatatom 1170.0 265.0 5 0 0 0 - - - 0;
#X obj 1170.0 292.0 zl reg;
#X obj 1170.0 319.0 change;
#X obj 1170.0 346.0 t b f;
#X obj 1240.0 137.0 vsl 20 120 0 60 0 0 empty empty empty 0 -9 0 12 #fcfcfc #000000 #000000 0 1;
#X floatatom 1240.0 265.0 5 0 0 0 - - - 0;
#X obj 1240.0 292.0 zl reg;
#X obj 1240.0 319.0 change;
#X obj 1240.0 346.0 t b f;
#X obj 820.0 387.0 pack f f f f f f f;
#X msg 820.0 412.0 /fluid/spectralshape \$1 \$2 \$3 \$4 \$5 \$6 \$7;
#X obj 820.0 437.0 s send.to.iipyper;
#X text 1410.0 30 /fluid/noveltyfeature;
#X text 1410.0 45 novelty;
#X text 1410.0 60 f 0 1;
#X obj 1410.0 80 r fluid_noveltyfeature_nov;
#X obj 1360.0 265 r rate;
#X obj 1410.0 137.0 vsl 20 120 0 1 0 0 empty empty empty 0 -9 0 12 #fcfcfc #000000 #000000 0 1;
#X floatatom 1410.0 265.0 5 0 0 0 - - - 0;
#X obj 1410.0 292.0 zl reg;
#X obj 1410.0 319.0 change;
#X msg 1410.0 412.0 /fluid/noveltyfeature \$1;
#X obj 1410.0 437.0 s send.to.iipyper;
#X text 1750.0 30 /fluid/ampfeature;
#X text 1750.0 45 amp;
#X text 1750.0 60 f 0 1;
#X obj 1750.0 80 r fluid_ampfeature_amp;
#X obj 1700.0 265 r rate;
#X obj 1750.0 137.0 vsl 20 120 0 1 0 0 empty empty empty 0 -9 0 12 #fcfcfc #000000 #000000 0 1;
#X floatatom 1750.0 265.0 5 0 0 0 - - - 0;
#X obj 1750.0 292.0 zl reg;
#X obj 1750.0 319.0 change;
#X msg 1750.0 412.0 /fluid/ampfeature \$1;
#X obj 1750.0 437.0 s send.to.iipyper;
#X connect 2 0 3 0;
#X connect 3 0 9 0;
#X connect 9 0 10 0;
#X connect 9 1 11 0;
#X connect 2 0 5 0;
#X connect 5 0 6 0;
#X connect 4 0 9 0;
#X connect 7 0 8 0;
#X connect 8 0 9 0;
#X connect 14 0 15 0;
#X connect 15 0 17 0;
#X connect 15 0 16 0;
#X connect 26 0 27 0;
#X connect 27 0 28 1;
#X connect 25 0 28 0;
#X connect 28 0 29 0;
#X connect 30 0 31 0;
#X connect 31 0 32 1;
#X connect 25 0 32 0;
#X connect 32 0 33 0;
#X connect 33 0 34 0;
#X connect 23 0 26 0;
#X connect 29 0 35 0;
#X connect 24 0 30 0;
#X connect 34 0 35 0;
#X connect 34 1 35 1;
#X connect 35 0 36 0;
#X connect 36 0 37 0;
#X connect 46 0 47 0;
#X connect 47 0 48 1;
#X connect 45 0 48 0;
#X connect 48 0 49 0;
#X connect 50 0 51 0;
#X connect 51 0 52 1;
#X connect 45 0 52 0;
#X connect 52 0 53 0;
#X connect 53 0 54 0;
#X connect 43 0 46 0;
#X connect 49 0 55 0;
#X connect 44 0 50 0;
#X connect 54 0 55 0;
#X connect 54 1 55 1;
#X connect 55 0 56 0;
#X connect 56 0 57 0;
#X connect 81 0 82 0;
#X connect 82 0 83 1;
#X connect 80 0 83 0;
#X connect 83 0 84 0;
#X connect 85 0 86 0;
#X connect 86 0 87 1;
#X connect 80 0 87 0;
#X connect 87 0 88 0;
#X connect 88 0 89 0;
#X connect 90 0 91 0;
#X connect 91 0 92 1;
#X connect 80 0 92 0;
#X connect 92 0 93 0;
#X connect 93 0 94 0;
#X connect 95 0 96 0;
#X connect 96 0 97 1;
#X connect 80 0 97 0;
#X connect 97 0 98 0;
#X connect 98 0 99 0;
#X connect 100 0 101 0;
#X connect 101 0 102 1;
#X connect 80 0 102 0;
#X connect 102 0 103 0;
#X connect 103 0 104 0;
#X connect 105 0 106 0;
#X connect 106 0 107 1;
#X connect 80 0 107 0;
#X connect 107 0 108 0;
#X connect 108 0 109 0;
#X connect 110 0 111 0;
#X connect 111 0 112 1;
#X connect 80 0 112 0;
#X connect 112 0 113 0;
#X connect 113 0 114 0;
#X connect 73 0 81 0;
#X connect 84 0 115 0;
#X connect 74 0 85 0;
#X connect 89 0 115 0;
#X connect 89 1 115 1;
#X connect 75 0 90 0;
#X connect 94 0 115 0;
#X connect 94 1 115 2;
#X connect 76 0 95 0;
#X connect 99 0 115 0;
#X connect 99 1 115 3;
#X connect 77 0 100 0;
#X connect 104 0 115 0;
#X connect 104 1 115 4;
#X connect 78 0 105 0;
#X connect 109 0 115 0;
#X connect 109 1 115 5;
#X connect 79 0 110 0;
#X connect 114 0 115 0;
#X connect 114 1 115 6;
#X connect 115 0 116 0;
#X connect 116 0 117 0;
#X connect 123 0 124 0;
#X connect 124 0 125 1;
#X connect 122 0 125 0;
#X connect 125 0 126 0;
#X connect 121 0 123 0;
#X connect 126 0 127 0;
#X connect 127 0 128 0;
#X connect 134 0 135 0;
#X connect 135 0 136 1;
#X connect 133 0 136 0;
#X connect 136 0 137 0;
#X connect 132 0 134 0;
#X connect 137 0 138 0;
#X connect 138 0 139 0;
